<mxfile modified="2020-12-11T07:04:46.891Z" host="app.diagrams.net" agent="5.0 (Windows NT 10.0; Win64; x64) AppleWebKit/537.36 (KHTML, like Gecko) Chrome/86.0.4240.111 Safari/537.36" etag="YJ3wpqD-8dxRDDYURf8L" version="14.0.0" type="github">
  <diagram id="l8hXMBHkgcEJcSW0mbfh" name="Page-1">
    <mxGraphModel dx="2062" dy="762" grid="1" gridSize="10" guides="1" tooltips="1" connect="1" arrows="1" fold="1" page="1" pageScale="1" pageWidth="1169" pageHeight="827" math="0" shadow="0">
      <root>
        <mxCell id="0" />
        <mxCell id="1" parent="0" />
        <mxCell id="8--HhbSZYtI3ddgJnD71-28" style="edgeStyle=none;rounded=0;orthogonalLoop=1;jettySize=auto;html=1;sourcePerimeterSpacing=5;endArrow=none;endFill=0;targetPerimeterSpacing=5;exitX=0.5;exitY=0;exitDx=0;exitDy=0;" parent="1" target="T79O4q9SvLmyfKx7ZLjV-8" edge="1">
          <mxGeometry relative="1" as="geometry">
            <mxPoint x="800" y="219" as="sourcePoint" />
            <mxPoint x="897" y="150.6190476190476" as="targetPoint" />
          </mxGeometry>
        </mxCell>
        <mxCell id="8--HhbSZYtI3ddgJnD71-29" style="edgeStyle=none;rounded=0;orthogonalLoop=1;jettySize=auto;html=1;sourcePerimeterSpacing=5;endArrow=none;endFill=0;targetPerimeterSpacing=5;exitX=0.5;exitY=0;exitDx=0;exitDy=0;" parent="1" target="T79O4q9SvLmyfKx7ZLjV-7" edge="1">
          <mxGeometry relative="1" as="geometry">
            <mxPoint x="800" y="219" as="sourcePoint" />
            <mxPoint x="967" y="217" as="targetPoint" />
          </mxGeometry>
        </mxCell>
        <mxCell id="8--HhbSZYtI3ddgJnD71-30" style="edgeStyle=none;rounded=0;orthogonalLoop=1;jettySize=auto;html=1;sourcePerimeterSpacing=5;endArrow=none;endFill=0;targetPerimeterSpacing=5;exitX=0.5;exitY=0;exitDx=0;exitDy=0;" parent="1" target="8--HhbSZYtI3ddgJnD71-4" edge="1">
          <mxGeometry relative="1" as="geometry">
            <mxPoint x="800" y="219" as="sourcePoint" />
          </mxGeometry>
        </mxCell>
        <mxCell id="8--HhbSZYtI3ddgJnD71-21" style="edgeStyle=none;rounded=0;orthogonalLoop=1;jettySize=auto;html=1;sourcePerimeterSpacing=5;endArrow=none;endFill=0;targetPerimeterSpacing=5;exitX=1;exitY=0.5;exitDx=0;exitDy=0;" parent="1" source="T79O4q9SvLmyfKx7ZLjV-3" edge="1">
          <mxGeometry relative="1" as="geometry">
            <mxPoint x="468" y="215.409972299169" as="sourcePoint" />
            <mxPoint x="771" y="240.59002770083111" as="targetPoint" />
          </mxGeometry>
        </mxCell>
        <mxCell id="8--HhbSZYtI3ddgJnD71-23" style="edgeStyle=none;rounded=0;orthogonalLoop=1;jettySize=auto;html=1;sourcePerimeterSpacing=5;endArrow=none;endFill=0;targetPerimeterSpacing=5;" parent="1" source="8--HhbSZYtI3ddgJnD71-16" edge="1">
          <mxGeometry relative="1" as="geometry">
            <mxPoint x="400" y="268" as="targetPoint" />
          </mxGeometry>
        </mxCell>
        <mxCell id="8--HhbSZYtI3ddgJnD71-20" style="rounded=0;orthogonalLoop=1;jettySize=auto;html=1;endArrow=none;endFill=0;sourcePerimeterSpacing=5;targetPerimeterSpacing=5;" parent="1" source="8--HhbSZYtI3ddgJnD71-17" edge="1">
          <mxGeometry relative="1" as="geometry">
            <mxPoint x="400" y="268" as="targetPoint" />
          </mxGeometry>
        </mxCell>
        <mxCell id="8--HhbSZYtI3ddgJnD71-22" style="edgeStyle=none;rounded=0;orthogonalLoop=1;jettySize=auto;html=1;sourcePerimeterSpacing=5;endArrow=none;endFill=0;targetPerimeterSpacing=5;" parent="1" source="8--HhbSZYtI3ddgJnD71-18" edge="1">
          <mxGeometry relative="1" as="geometry">
            <mxPoint x="400" y="268" as="targetPoint" />
          </mxGeometry>
        </mxCell>
        <mxCell id="8--HhbSZYtI3ddgJnD71-4" value="老师组卷" style="shape=image;verticalLabelPosition=bottom;verticalAlign=top;imageAspect=0;aspect=fixed;image=data:image/svg+xml,PHN2ZyB4bWxucz0iaHR0cDovL3d3dy53My5vcmcvMjAwMC9zdmciIHZlcnNpb249IjEiIHZpZXdCb3g9IjAgMCA0OCA0OCIgZW5hYmxlLWJhY2tncm91bmQ9Im5ldyAwIDAgNDggNDgiPiYjeGE7ICAgIDxyZWN0IHg9IjEzIiB5PSIzMCIgZmlsbD0iI0JGMzYwQyIgd2lkdGg9IjIyIiBoZWlnaHQ9IjEyIi8+JiN4YTsgICAgPGcgZmlsbD0iI0ZGQTcyNiI+JiN4YTsgICAgICAgIDxjaXJjbGUgY3g9IjEwIiBjeT0iMjYiIHI9IjQiLz4mI3hhOyAgICAgICAgPGNpcmNsZSBjeD0iMzgiIGN5PSIyNiIgcj0iNCIvPiYjeGE7ICAgIDwvZz4mI3hhOyAgICA8cGF0aCBmaWxsPSIjRkZCNzREIiBkPSJNMzksMTljMC0xMi43LTMwLTguMy0zMCwwYzAsMS44LDAsOC4yLDAsMTBjMCw4LjMsNi43LDE1LDE1LDE1czE1LTYuNywxNS0xNUMzOSwyNy4yLDM5LDIwLjgsMzksMTl6Ii8+JiN4YTsgICAgPGcgZmlsbD0iIzc4NDcxOSI+JiN4YTsgICAgICAgIDxjaXJjbGUgY3g9IjMwIiBjeT0iMjYiIHI9IjIiLz4mI3hhOyAgICAgICAgPGNpcmNsZSBjeD0iMTgiIGN5PSIyNiIgcj0iMiIvPiYjeGE7ICAgIDwvZz4mI3hhOyAgICA8cGF0aCBmaWxsPSIjRkY1NzIyIiBkPSJNMjQsMkMxNS41LDIsMyw3LjgsMywzNS42TDEzLDQyVjI0bDE2LjgtOS44TDM1LDIxdjIxbDEwLTguMmMwLTUuNi0wLjktMjktMTUuNC0yOUwyOC4yLDJIMjR6Ii8+JiN4YTsgICAgPHBhdGggZmlsbD0iIzc1NzU3NSIgZD0iTTQ1LDI0Yy0wLjYsMC0xLDAuNC0xLDF2LTdjMC04LjgtNy4yLTE2LTE2LTE2aC05Yy0wLjYsMC0xLDAuNC0xLDFzMC40LDEsMSwxaDljNy43LDAsMTQsNi4zLDE0LDE0djEwIGMwLDAuNiwwLjQsMSwxLDFzMS0wLjQsMS0xdjJjMCwzLjktMy4xLDctNyw3SDI0Yy0wLjYsMC0xLDAuNC0xLDFzMC40LDEsMSwxaDEzYzUsMCw5LTQsOS05di01QzQ2LDI0LjQsNDUuNiwyNCw0NSwyNHoiLz4mI3hhOyAgICA8ZyBmaWxsPSIjMzc0NzRGIj4mI3hhOyAgICAgICAgPHBhdGggZD0iTTQ1LDIyaC0xYy0xLjEsMC0yLDAuOS0yLDJ2NGMwLDEuMSwwLjksMiwyLDJoMWMxLjEsMCwyLTAuOSwyLTJ2LTRDNDcsMjIuOSw0Ni4xLDIyLDQ1LDIyeiIvPiYjeGE7ICAgICAgICA8Y2lyY2xlIGN4PSIyNCIgY3k9IjM4IiByPSIyIi8+JiN4YTsgICAgPC9nPiYjeGE7PC9zdmc+;labelBackgroundColor=#ffffff;" parent="1" vertex="1">
          <mxGeometry x="868" y="80" width="48" height="48" as="geometry" />
        </mxCell>
        <mxCell id="8--HhbSZYtI3ddgJnD71-16" value="教研-页面录入试题&#xa;" style="shape=image;verticalLabelPosition=bottom;verticalAlign=top;imageAspect=0;aspect=fixed;image=data:image/svg+xml,PHN2ZyB4bWxucz0iaHR0cDovL3d3dy53My5vcmcvMjAwMC9zdmciIHZlcnNpb249IjEiIHZpZXdCb3g9IjAgMCA0OCA0OCIgZW5hYmxlLWJhY2tncm91bmQ9Im5ldyAwIDAgNDggNDgiPiYjeGE7ICAgIDxwb2x5Z29uIGZpbGw9IiNGRjk4MDAiIHBvaW50cz0iMjQsMzcgMTksMzEgMTksMjUgMjksMjUgMjksMzEiLz4mI3hhOyAgICA8ZyBmaWxsPSIjRkZBNzI2Ij4mI3hhOyAgICAgICAgPGNpcmNsZSBjeD0iMzMiIGN5PSIxOSIgcj0iMiIvPiYjeGE7ICAgICAgICA8Y2lyY2xlIGN4PSIxNSIgY3k9IjE5IiByPSIyIi8+JiN4YTsgICAgPC9nPiYjeGE7ICAgIDxwYXRoIGZpbGw9IiNGRkI3NEQiIGQ9Ik0zMywxM2MwLTcuNi0xOC01LTE4LDBjMCwxLjEsMCw1LjksMCw3YzAsNSw0LDksOSw5czktNCw5LTlDMzMsMTguOSwzMywxNC4xLDMzLDEzeiIvPiYjeGE7ICAgIDxwYXRoIGZpbGw9IiM0MjQyNDIiIGQ9Ik0yNCw0Yy02LjEsMC0xMCw0LjktMTAsMTFjMCwwLjgsMCwyLjMsMCwyLjNsMiwxLjd2LTVsMTItNGw0LDR2NWwyLTEuN2MwLDAsMC0xLjUsMC0yLjNjMC00LTEtOC02LTlsLTEtMiBIMjR6Ii8+JiN4YTsgICAgPGcgZmlsbD0iIzc4NDcxOSI+JiN4YTsgICAgICAgIDxjaXJjbGUgY3g9IjI4IiBjeT0iMTkiIHI9IjEiLz4mI3hhOyAgICAgICAgPGNpcmNsZSBjeD0iMjAiIGN5PSIxOSIgcj0iMSIvPiYjeGE7ICAgIDwvZz4mI3hhOyAgICA8cG9seWdvbiBmaWxsPSIjZmZmIiBwb2ludHM9IjI0LDQzIDE5LDMxIDI0LDMyIDI5LDMxIi8+JiN4YTsgICAgPHBvbHlnb24gZmlsbD0iI0QzMkYyRiIgcG9pbnRzPSIyMywzNSAyMi4zLDM5LjUgMjQsNDMuNSAyNS43LDM5LjUgMjUsMzUgMjYsMzQgMjQsMzIgMjIsMzQiLz4mI3hhOyAgICA8cGF0aCBmaWxsPSIjNTQ2RTdBIiBkPSJNMjksMzFMMjksMzFsLTUsMTJsLTUtMTJjMCwwLTExLDItMTEsMTNoMzJDNDAsMzMsMjksMzEsMjksMzF6Ii8+JiN4YTs8L3N2Zz4=;labelBackgroundColor=#ffffff;" parent="1" vertex="1">
          <mxGeometry x="190" y="278" width="48" height="48" as="geometry" />
        </mxCell>
        <mxCell id="8--HhbSZYtI3ddgJnD71-17" value="reading模板录入试题" style="shape=image;verticalLabelPosition=bottom;verticalAlign=top;imageAspect=0;aspect=fixed;image=data:image/svg+xml,PHN2ZyB4bWxucz0iaHR0cDovL3d3dy53My5vcmcvMjAwMC9zdmciIHZlcnNpb249IjEiIHZpZXdCb3g9IjAgMCA0OCA0OCIgZW5hYmxlLWJhY2tncm91bmQ9Im5ldyAwIDAgNDggNDgiPiYjeGE7ICAgIDxwb2x5Z29uIGZpbGw9IiNGRjk4MDAiIHBvaW50cz0iMjQsMzcgMTksMzEgMTksMjUgMjksMjUgMjksMzEiLz4mI3hhOyAgICA8ZyBmaWxsPSIjRkZBNzI2Ij4mI3hhOyAgICAgICAgPGNpcmNsZSBjeD0iMzMiIGN5PSIxOSIgcj0iMiIvPiYjeGE7ICAgICAgICA8Y2lyY2xlIGN4PSIxNSIgY3k9IjE5IiByPSIyIi8+JiN4YTsgICAgPC9nPiYjeGE7ICAgIDxwYXRoIGZpbGw9IiNGRkI3NEQiIGQ9Ik0zMywxM2MwLTcuNi0xOC01LTE4LDBjMCwxLjEsMCw1LjksMCw3YzAsNSw0LDksOSw5czktNCw5LTlDMzMsMTguOSwzMywxNC4xLDMzLDEzeiIvPiYjeGE7ICAgIDxwYXRoIGZpbGw9IiM0MjQyNDIiIGQ9Ik0yNCw0Yy02LjEsMC0xMCw0LjktMTAsMTFjMCwwLjgsMCwyLjMsMCwyLjNsMiwxLjd2LTVsMTItNGw0LDR2NWwyLTEuN2MwLDAsMC0xLjUsMC0yLjNjMC00LTEtOC02LTlsLTEtMiBIMjR6Ii8+JiN4YTsgICAgPGcgZmlsbD0iIzc4NDcxOSI+JiN4YTsgICAgICAgIDxjaXJjbGUgY3g9IjI4IiBjeT0iMTkiIHI9IjEiLz4mI3hhOyAgICAgICAgPGNpcmNsZSBjeD0iMjAiIGN5PSIxOSIgcj0iMSIvPiYjeGE7ICAgIDwvZz4mI3hhOyAgICA8cG9seWdvbiBmaWxsPSIjZmZmIiBwb2ludHM9IjI0LDQzIDE5LDMxIDI0LDMyIDI5LDMxIi8+JiN4YTsgICAgPHBvbHlnb24gZmlsbD0iI0QzMkYyRiIgcG9pbnRzPSIyMywzNSAyMi4zLDM5LjUgMjQsNDMuNSAyNS43LDM5LjUgMjUsMzUgMjYsMzQgMjQsMzIgMjIsMzQiLz4mI3hhOyAgICA8cGF0aCBmaWxsPSIjNTQ2RTdBIiBkPSJNMjksMzFMMjksMzFsLTUsMTJsLTUtMTJjMCwwLTExLDItMTEsMTNoMzJDNDAsMzMsMjksMzEsMjksMzF6Ii8+JiN4YTs8L3N2Zz4=;labelBackgroundColor=#ffffff;" parent="1" vertex="1">
          <mxGeometry x="238" y="80" width="48" height="48" as="geometry" />
        </mxCell>
        <mxCell id="8--HhbSZYtI3ddgJnD71-18" value="教研-json+附件录入试题&#xa;" style="shape=image;verticalLabelPosition=bottom;verticalAlign=top;imageAspect=0;aspect=fixed;image=data:image/svg+xml,PHN2ZyB4bWxucz0iaHR0cDovL3d3dy53My5vcmcvMjAwMC9zdmciIHZlcnNpb249IjEiIHZpZXdCb3g9IjAgMCA0OCA0OCIgZW5hYmxlLWJhY2tncm91bmQ9Im5ldyAwIDAgNDggNDgiPiYjeGE7ICAgIDxwb2x5Z29uIGZpbGw9IiNGRjk4MDAiIHBvaW50cz0iMjQsMzcgMTksMzEgMTksMjUgMjksMjUgMjksMzEiLz4mI3hhOyAgICA8ZyBmaWxsPSIjRkZBNzI2Ij4mI3hhOyAgICAgICAgPGNpcmNsZSBjeD0iMzMiIGN5PSIxOSIgcj0iMiIvPiYjeGE7ICAgICAgICA8Y2lyY2xlIGN4PSIxNSIgY3k9IjE5IiByPSIyIi8+JiN4YTsgICAgPC9nPiYjeGE7ICAgIDxwYXRoIGZpbGw9IiNGRkI3NEQiIGQ9Ik0zMywxM2MwLTcuNi0xOC01LTE4LDBjMCwxLjEsMCw1LjksMCw3YzAsNSw0LDksOSw5czktNCw5LTlDMzMsMTguOSwzMywxNC4xLDMzLDEzeiIvPiYjeGE7ICAgIDxwYXRoIGZpbGw9IiM0MjQyNDIiIGQ9Ik0yNCw0Yy02LjEsMC0xMCw0LjktMTAsMTFjMCwwLjgsMCwyLjMsMCwyLjNsMiwxLjd2LTVsMTItNGw0LDR2NWwyLTEuN2MwLDAsMC0xLjUsMC0yLjNjMC00LTEtOC02LTlsLTEtMiBIMjR6Ii8+JiN4YTsgICAgPGcgZmlsbD0iIzc4NDcxOSI+JiN4YTsgICAgICAgIDxjaXJjbGUgY3g9IjI4IiBjeT0iMTkiIHI9IjEiLz4mI3hhOyAgICAgICAgPGNpcmNsZSBjeD0iMjAiIGN5PSIxOSIgcj0iMSIvPiYjeGE7ICAgIDwvZz4mI3hhOyAgICA8cG9seWdvbiBmaWxsPSIjZmZmIiBwb2ludHM9IjI0LDQzIDE5LDMxIDI0LDMyIDI5LDMxIi8+JiN4YTsgICAgPHBvbHlnb24gZmlsbD0iI0QzMkYyRiIgcG9pbnRzPSIyMywzNSAyMi4zLDM5LjUgMjQsNDMuNSAyNS43LDM5LjUgMjUsMzUgMjYsMzQgMjQsMzIgMjIsMzQiLz4mI3hhOyAgICA8cGF0aCBmaWxsPSIjNTQ2RTdBIiBkPSJNMjksMzFMMjksMzFsLTUsMTJsLTUtMTJjMCwwLTExLDItMTEsMTNoMzJDNDAsMzMsMjksMzEsMjksMzF6Ii8+JiN4YTs8L3N2Zz4=;labelBackgroundColor=#ffffff;" parent="1" vertex="1">
          <mxGeometry x="190" y="168" width="48" height="48" as="geometry" />
        </mxCell>
        <mxCell id="T79O4q9SvLmyfKx7ZLjV-3" value="试题库" style="shape=image;verticalLabelPosition=bottom;verticalAlign=top;imageAspect=0;aspect=fixed;image=data:image/svg+xml,PHN2ZyB4bWxucz0iaHR0cDovL3d3dy53My5vcmcvMjAwMC9zdmciIHZlcnNpb249IjEiIHZpZXdCb3g9IjAgMCA0OCA0OCIgZW5hYmxlLWJhY2tncm91bmQ9Im5ldyAwIDAgNDggNDgiPiYjeGE7ICAgIDxnIGZpbGw9IiNEMUM0RTkiPiYjeGE7ICAgICAgICA8cGF0aCBkPSJNMzgsN0gxMEM4LjksNyw4LDcuOSw4LDl2NmMwLDEuMSwwLjksMiwyLDJoMjhjMS4xLDAsMi0wLjksMi0yVjlDNDAsNy45LDM5LjEsNywzOCw3eiIvPiYjeGE7ICAgICAgICA8cGF0aCBkPSJNMzgsMTlIMTBjLTEuMSwwLTIsMC45LTIsMnY2YzAsMS4xLDAuOSwyLDIsMmgyOGMxLjEsMCwyLTAuOSwyLTJ2LTZDNDAsMTkuOSwzOS4xLDE5LDM4LDE5eiIvPiYjeGE7ICAgICAgICA8cGF0aCBkPSJNMzgsMzFIMTBjLTEuMSwwLTIsMC45LTIsMnY2YzAsMS4xLDAuOSwyLDIsMmgyOGMxLjEsMCwyLTAuOSwyLTJ2LTZDNDAsMzEuOSwzOS4xLDMxLDM4LDMxeiIvPiYjeGE7ICAgIDwvZz4mI3hhOyAgICA8Y2lyY2xlIGZpbGw9IiM0M0EwNDciIGN4PSIzOCIgY3k9IjM4IiByPSIxMCIvPiYjeGE7ICAgIDxnIGZpbGw9IiNmZmYiPiYjeGE7ICAgICAgICA8cmVjdCB4PSIzNiIgeT0iMzIiIHdpZHRoPSI0IiBoZWlnaHQ9IjEyIi8+JiN4YTsgICAgICAgIDxyZWN0IHg9IjMyIiB5PSIzNiIgd2lkdGg9IjEyIiBoZWlnaHQ9IjQiLz4mI3hhOyAgICA8L2c+JiN4YTs8L3N2Zz4=" parent="1" vertex="1">
          <mxGeometry x="396" y="248" width="48" height="48" as="geometry" />
        </mxCell>
        <mxCell id="T79O4q9SvLmyfKx7ZLjV-7" value="学生自选组合卷" style="shape=image;verticalLabelPosition=bottom;verticalAlign=top;imageAspect=0;aspect=fixed;image=data:image/svg+xml,PHN2ZyB4bWxucz0iaHR0cDovL3d3dy53My5vcmcvMjAwMC9zdmciIHZlcnNpb249IjEiIHZpZXdCb3g9IjAgMCA0OCA0OCIgZW5hYmxlLWJhY2tncm91bmQ9Im5ldyAwIDAgNDggNDgiPiYjeGE7ICAgIDxwYXRoIGZpbGw9IiM0MEM0RkYiIGQ9Ik00Mi45LDYuM0M0My42LDcuNCw0NCw4LjYsNDQsMTBjMCwzLjktMy4xLDctNyw3Yy0wLjcsMC0xLjMtMC4xLTEuOS0wLjNjMS4yLDIsMy40LDMuMyw1LjksMy4zIGMzLjksMCw3LTMuMSw3LTdDNDgsOS44LDQ1LjksNy4xLDQyLjksNi4zeiIvPiYjeGE7ICAgIDxnIGZpbGw9IiNCMzlEREIiPiYjeGE7ICAgICAgICA8Y2lyY2xlIGN4PSIzMSIgY3k9IjE5IiByPSIyIi8+JiN4YTsgICAgICAgIDxjaXJjbGUgY3g9IjEzIiBjeT0iMTkiIHI9IjIiLz4mI3hhOyAgICAgICAgPHBvbHlnb24gcG9pbnRzPSIyMiwzNyAxNywzMSAxNywyNSAyNywyNSAyNywzMSIvPiYjeGE7ICAgIDwvZz4mI3hhOyAgICA8cGF0aCBmaWxsPSIjRDFDNEU5IiBkPSJNMzEsMTNjMC03LjYtMTgtNS0xOCwwYzAsMS4xLDAsNS45LDAsN2MwLDUsNCw5LDksOXM5LTQsOS05QzMxLDE4LjksMzEsMTQuMSwzMSwxM3oiLz4mI3hhOyAgICA8ZyBmaWxsPSIjNjczQUI3Ij4mI3hhOyAgICAgICAgPGNpcmNsZSBjeD0iMjYiIGN5PSIxOSIgcj0iMSIvPiYjeGE7ICAgICAgICA8Y2lyY2xlIGN4PSIxOCIgY3k9IjE5IiByPSIxIi8+JiN4YTsgICAgICAgIDxwYXRoIGQ9Ik0yMiw0Yy02LjEsMC0xMCw0LjktMTAsMTFjMCwwLjgsMCwyLjMsMCwyLjNsMiwxLjd2LTVsMTItNGw0LDR2NWwyLTEuN2MwLDAsMC0xLjUsMC0yLjNjMC00LTEtOC02LTlsLTEtMiBIMjJ6Ii8+JiN4YTsgICAgICAgIDxwYXRoIGQ9Ik0yNywzMUwyNywzMWMwLDAtMiwxLTUsMXMtNS0xLTUtMVM2LDMzLDYsNDRoMzJDMzgsMzMsMjcsMzEsMjcsMzF6Ii8+JiN4YTsgICAgPC9nPiYjeGE7PC9zdmc+" parent="1" vertex="1">
          <mxGeometry x="760" y="80" width="48" height="48" as="geometry" />
        </mxCell>
        <mxCell id="T79O4q9SvLmyfKx7ZLjV-8" value="教研组卷" style="shape=image;verticalLabelPosition=bottom;verticalAlign=top;imageAspect=0;aspect=fixed;image=data:image/svg+xml,PHN2ZyB4bWxucz0iaHR0cDovL3d3dy53My5vcmcvMjAwMC9zdmciIHZlcnNpb249IjEiIHZpZXdCb3g9IjAgMCA0OCA0OCIgZW5hYmxlLWJhY2tncm91bmQ9Im5ldyAwIDAgNDggNDgiPiYjeGE7ICAgIDxwb2x5Z29uIGZpbGw9IiNGRjk4MDAiIHBvaW50cz0iMjQsMzcgMTksMzEgMTksMjUgMjksMjUgMjksMzEiLz4mI3hhOyAgICA8ZyBmaWxsPSIjRkZBNzI2Ij4mI3hhOyAgICAgICAgPGNpcmNsZSBjeD0iMzMiIGN5PSIxOSIgcj0iMiIvPiYjeGE7ICAgICAgICA8Y2lyY2xlIGN4PSIxNSIgY3k9IjE5IiByPSIyIi8+JiN4YTsgICAgPC9nPiYjeGE7ICAgIDxwYXRoIGZpbGw9IiNGRkI3NEQiIGQ9Ik0zMywxM2MwLTcuNi0xOC01LTE4LDBjMCwxLjEsMCw1LjksMCw3YzAsNSw0LDksOSw5czktNCw5LTlDMzMsMTguOSwzMywxNC4xLDMzLDEzeiIvPiYjeGE7ICAgIDxwYXRoIGZpbGw9IiM0MjQyNDIiIGQ9Ik0yNCw0Yy02LjEsMC0xMCw0LjktMTAsMTFjMCwwLjgsMCwyLjMsMCwyLjNsMiwxLjd2LTVsMTItNGw0LDR2NWwyLTEuN2MwLDAsMC0xLjUsMC0yLjNjMC00LTEtOC02LTlsLTEtMiBIMjR6Ii8+JiN4YTsgICAgPGcgZmlsbD0iIzc4NDcxOSI+JiN4YTsgICAgICAgIDxjaXJjbGUgY3g9IjI4IiBjeT0iMTkiIHI9IjEiLz4mI3hhOyAgICAgICAgPGNpcmNsZSBjeD0iMjAiIGN5PSIxOSIgcj0iMSIvPiYjeGE7ICAgIDwvZz4mI3hhOyAgICA8cG9seWdvbiBmaWxsPSIjZmZmIiBwb2ludHM9IjI0LDQzIDE5LDMxIDI0LDMyIDI5LDMxIi8+JiN4YTsgICAgPHBvbHlnb24gZmlsbD0iI0QzMkYyRiIgcG9pbnRzPSIyMywzNSAyMi4zLDM5LjUgMjQsNDMuNSAyNS43LDM5LjUgMjUsMzUgMjYsMzQgMjQsMzIgMjIsMzQiLz4mI3hhOyAgICA8cGF0aCBmaWxsPSIjNTQ2RTdBIiBkPSJNMjksMzFMMjksMzFsLTUsMTJsLTUtMTJjMCwwLTExLDItMTEsMTNoMzJDNDAsMzMsMjksMzEsMjksMzF6Ii8+JiN4YTs8L3N2Zz4=;labelBackgroundColor=#ffffff;" parent="1" vertex="1">
          <mxGeometry x="590" y="80" width="48" height="48" as="geometry" />
        </mxCell>
        <mxCell id="T79O4q9SvLmyfKx7ZLjV-9" value="" style="shape=image;verticalLabelPosition=bottom;verticalAlign=top;imageAspect=0;aspect=fixed;image=data:image/svg+xml,PHN2ZyB4bWxucz0iaHR0cDovL3d3dy53My5vcmcvMjAwMC9zdmciIHZlcnNpb249IjEiIHZpZXdCb3g9IjAgMCA0OCA0OCIgZW5hYmxlLWJhY2tncm91bmQ9Im5ldyAwIDAgNDggNDgiPiYjeGE7ICAgIDxwYXRoIGZpbGw9IiM5MENBRjkiIGQ9Ik00Miw0Mkg2VjEwYzAtMi4yLDEuOC00LDQtNGgyOGMyLjIsMCw0LDEuOCw0LDRWNDJ6Ii8+JiN4YTsgICAgPHJlY3QgeD0iNiIgeT0iNDIiIGZpbGw9IiM2NEI1RjYiIHdpZHRoPSIzNiIgaGVpZ2h0PSIyIi8+JiN4YTsgICAgPGcgZmlsbD0iIzE1NjVDMCI+JiN4YTsgICAgICAgIDxyZWN0IHg9IjMxIiB5PSIyNyIgd2lkdGg9IjYiIGhlaWdodD0iNSIvPiYjeGE7ICAgICAgICA8cmVjdCB4PSIyMSIgeT0iMjciIHdpZHRoPSI2IiBoZWlnaHQ9IjUiLz4mI3hhOyAgICAgICAgPHJlY3QgeD0iMTEiIHk9IjI3IiB3aWR0aD0iNiIgaGVpZ2h0PSI1Ii8+JiN4YTsgICAgICAgIDxyZWN0IHg9IjMxIiB5PSIzNSIgd2lkdGg9IjYiIGhlaWdodD0iNSIvPiYjeGE7ICAgICAgICA8cmVjdCB4PSIxMSIgeT0iMzUiIHdpZHRoPSI2IiBoZWlnaHQ9IjUiLz4mI3hhOyAgICAgICAgPHJlY3QgeD0iMzEiIHk9IjE5IiB3aWR0aD0iNiIgaGVpZ2h0PSI1Ii8+JiN4YTsgICAgICAgIDxyZWN0IHg9IjIxIiB5PSIxOSIgd2lkdGg9IjYiIGhlaWdodD0iNSIvPiYjeGE7ICAgICAgICA8cmVjdCB4PSIxMSIgeT0iMTkiIHdpZHRoPSI2IiBoZWlnaHQ9IjUiLz4mI3hhOyAgICAgICAgPHJlY3QgeD0iMzEiIHk9IjExIiB3aWR0aD0iNiIgaGVpZ2h0PSI1Ii8+JiN4YTsgICAgICAgIDxyZWN0IHg9IjIxIiB5PSIxMSIgd2lkdGg9IjYiIGhlaWdodD0iNSIvPiYjeGE7ICAgICAgICA8cmVjdCB4PSIxMSIgeT0iMTEiIHdpZHRoPSI2IiBoZWlnaHQ9IjUiLz4mI3hhOyAgICAgICAgPHJlY3QgeD0iMjEiIHk9IjM1IiB3aWR0aD0iNiIgaGVpZ2h0PSI5Ii8+JiN4YTsgICAgPC9nPiYjeGE7PC9zdmc+" parent="1" vertex="1">
          <mxGeometry x="778" y="220" width="48" height="48" as="geometry" />
        </mxCell>
        <mxCell id="T79O4q9SvLmyfKx7ZLjV-10" value="" style="shape=image;verticalLabelPosition=bottom;verticalAlign=top;imageAspect=0;aspect=fixed;image=data:image/svg+xml,PHN2ZyB4bWxucz0iaHR0cDovL3d3dy53My5vcmcvMjAwMC9zdmciIHZlcnNpb249IjEiIHZpZXdCb3g9IjAgMCA0OCA0OCIgZW5hYmxlLWJhY2tncm91bmQ9Im5ldyAwIDAgNDggNDgiPiYjeGE7ICAgIDxwYXRoIGZpbGw9IiM5MENBRjkiIGQ9Ik00Miw0Mkg2VjEwYzAtMi4yLDEuOC00LDQtNGgyOGMyLjIsMCw0LDEuOCw0LDRWNDJ6Ii8+JiN4YTsgICAgPHJlY3QgeD0iNiIgeT0iNDIiIGZpbGw9IiM2NEI1RjYiIHdpZHRoPSIzNiIgaGVpZ2h0PSIyIi8+JiN4YTsgICAgPGcgZmlsbD0iIzE1NjVDMCI+JiN4YTsgICAgICAgIDxyZWN0IHg9IjMxIiB5PSIyNyIgd2lkdGg9IjYiIGhlaWdodD0iNSIvPiYjeGE7ICAgICAgICA8cmVjdCB4PSIyMSIgeT0iMjciIHdpZHRoPSI2IiBoZWlnaHQ9IjUiLz4mI3hhOyAgICAgICAgPHJlY3QgeD0iMTEiIHk9IjI3IiB3aWR0aD0iNiIgaGVpZ2h0PSI1Ii8+JiN4YTsgICAgICAgIDxyZWN0IHg9IjMxIiB5PSIzNSIgd2lkdGg9IjYiIGhlaWdodD0iNSIvPiYjeGE7ICAgICAgICA8cmVjdCB4PSIxMSIgeT0iMzUiIHdpZHRoPSI2IiBoZWlnaHQ9IjUiLz4mI3hhOyAgICAgICAgPHJlY3QgeD0iMzEiIHk9IjE5IiB3aWR0aD0iNiIgaGVpZ2h0PSI1Ii8+JiN4YTsgICAgICAgIDxyZWN0IHg9IjIxIiB5PSIxOSIgd2lkdGg9IjYiIGhlaWdodD0iNSIvPiYjeGE7ICAgICAgICA8cmVjdCB4PSIxMSIgeT0iMTkiIHdpZHRoPSI2IiBoZWlnaHQ9IjUiLz4mI3hhOyAgICAgICAgPHJlY3QgeD0iMzEiIHk9IjExIiB3aWR0aD0iNiIgaGVpZ2h0PSI1Ii8+JiN4YTsgICAgICAgIDxyZWN0IHg9IjIxIiB5PSIxMSIgd2lkdGg9IjYiIGhlaWdodD0iNSIvPiYjeGE7ICAgICAgICA8cmVjdCB4PSIxMSIgeT0iMTEiIHdpZHRoPSI2IiBoZWlnaHQ9IjUiLz4mI3hhOyAgICAgICAgPHJlY3QgeD0iMjEiIHk9IjM1IiB3aWR0aD0iNiIgaGVpZ2h0PSI5Ii8+JiN4YTsgICAgPC9nPiYjeGE7PC9zdmc+" parent="1" vertex="1">
          <mxGeometry x="808" y="220" width="48" height="48" as="geometry" />
        </mxCell>
        <mxCell id="T79O4q9SvLmyfKx7ZLjV-11" value="试卷模板库" style="shape=image;verticalLabelPosition=bottom;verticalAlign=top;imageAspect=0;aspect=fixed;image=data:image/svg+xml,PHN2ZyB4bWxucz0iaHR0cDovL3d3dy53My5vcmcvMjAwMC9zdmciIHZlcnNpb249IjEiIHZpZXdCb3g9IjAgMCA0OCA0OCIgZW5hYmxlLWJhY2tncm91bmQ9Im5ldyAwIDAgNDggNDgiPiYjeGE7ICAgIDxwYXRoIGZpbGw9IiM5MENBRjkiIGQ9Ik00Miw0Mkg2VjEwYzAtMi4yLDEuOC00LDQtNGgyOGMyLjIsMCw0LDEuOCw0LDRWNDJ6Ii8+JiN4YTsgICAgPHJlY3QgeD0iNiIgeT0iNDIiIGZpbGw9IiM2NEI1RjYiIHdpZHRoPSIzNiIgaGVpZ2h0PSIyIi8+JiN4YTsgICAgPGcgZmlsbD0iIzE1NjVDMCI+JiN4YTsgICAgICAgIDxyZWN0IHg9IjMxIiB5PSIyNyIgd2lkdGg9IjYiIGhlaWdodD0iNSIvPiYjeGE7ICAgICAgICA8cmVjdCB4PSIyMSIgeT0iMjciIHdpZHRoPSI2IiBoZWlnaHQ9IjUiLz4mI3hhOyAgICAgICAgPHJlY3QgeD0iMTEiIHk9IjI3IiB3aWR0aD0iNiIgaGVpZ2h0PSI1Ii8+JiN4YTsgICAgICAgIDxyZWN0IHg9IjMxIiB5PSIzNSIgd2lkdGg9IjYiIGhlaWdodD0iNSIvPiYjeGE7ICAgICAgICA8cmVjdCB4PSIxMSIgeT0iMzUiIHdpZHRoPSI2IiBoZWlnaHQ9IjUiLz4mI3hhOyAgICAgICAgPHJlY3QgeD0iMzEiIHk9IjE5IiB3aWR0aD0iNiIgaGVpZ2h0PSI1Ii8+JiN4YTsgICAgICAgIDxyZWN0IHg9IjIxIiB5PSIxOSIgd2lkdGg9IjYiIGhlaWdodD0iNSIvPiYjeGE7ICAgICAgICA8cmVjdCB4PSIxMSIgeT0iMTkiIHdpZHRoPSI2IiBoZWlnaHQ9IjUiLz4mI3hhOyAgICAgICAgPHJlY3QgeD0iMzEiIHk9IjExIiB3aWR0aD0iNiIgaGVpZ2h0PSI1Ii8+JiN4YTsgICAgICAgIDxyZWN0IHg9IjIxIiB5PSIxMSIgd2lkdGg9IjYiIGhlaWdodD0iNSIvPiYjeGE7ICAgICAgICA8cmVjdCB4PSIxMSIgeT0iMTEiIHdpZHRoPSI2IiBoZWlnaHQ9IjUiLz4mI3hhOyAgICAgICAgPHJlY3QgeD0iMjEiIHk9IjM1IiB3aWR0aD0iNiIgaGVpZ2h0PSI5Ii8+JiN4YTsgICAgPC9nPiYjeGE7PC9zdmc+" parent="1" vertex="1">
          <mxGeometry x="798" y="257" width="48" height="48" as="geometry" />
        </mxCell>
        <mxCell id="T79O4q9SvLmyfKx7ZLjV-13" value="" style="shape=image;verticalLabelPosition=bottom;verticalAlign=top;imageAspect=0;aspect=fixed;image=data:image/svg+xml,PHN2ZyB4bWxucz0iaHR0cDovL3d3dy53My5vcmcvMjAwMC9zdmciIHZlcnNpb249IjEiIHZpZXdCb3g9IjAgMCA0OCA0OCIgZW5hYmxlLWJhY2tncm91bmQ9Im5ldyAwIDAgNDggNDgiPiYjeGE7ICAgIDxwYXRoIGZpbGw9IiM0MEM0RkYiIGQ9Ik00Mi45LDYuM0M0My42LDcuNCw0NCw4LjYsNDQsMTBjMCwzLjktMy4xLDctNyw3Yy0wLjcsMC0xLjMtMC4xLTEuOS0wLjNjMS4yLDIsMy40LDMuMyw1LjksMy4zIGMzLjksMCw3LTMuMSw3LTdDNDgsOS44LDQ1LjksNy4xLDQyLjksNi4zeiIvPiYjeGE7ICAgIDxnIGZpbGw9IiNCMzlEREIiPiYjeGE7ICAgICAgICA8Y2lyY2xlIGN4PSIzMSIgY3k9IjE5IiByPSIyIi8+JiN4YTsgICAgICAgIDxjaXJjbGUgY3g9IjEzIiBjeT0iMTkiIHI9IjIiLz4mI3hhOyAgICAgICAgPHBvbHlnb24gcG9pbnRzPSIyMiwzNyAxNywzMSAxNywyNSAyNywyNSAyNywzMSIvPiYjeGE7ICAgIDwvZz4mI3hhOyAgICA8cGF0aCBmaWxsPSIjRDFDNEU5IiBkPSJNMzEsMTNjMC03LjYtMTgtNS0xOCwwYzAsMS4xLDAsNS45LDAsN2MwLDUsNCw5LDksOXM5LTQsOS05QzMxLDE4LjksMzEsMTQuMSwzMSwxM3oiLz4mI3hhOyAgICA8ZyBmaWxsPSIjNjczQUI3Ij4mI3hhOyAgICAgICAgPGNpcmNsZSBjeD0iMjYiIGN5PSIxOSIgcj0iMSIvPiYjeGE7ICAgICAgICA8Y2lyY2xlIGN4PSIxOCIgY3k9IjE5IiByPSIxIi8+JiN4YTsgICAgICAgIDxwYXRoIGQ9Ik0yMiw0Yy02LjEsMC0xMCw0LjktMTAsMTFjMCwwLjgsMCwyLjMsMCwyLjNsMiwxLjd2LTVsMTItNGw0LDR2NWwyLTEuN2MwLDAsMC0xLjUsMC0yLjNjMC00LTEtOC02LTlsLTEtMiBIMjJ6Ii8+JiN4YTsgICAgICAgIDxwYXRoIGQ9Ik0yNywzMUwyNywzMWMwLDAtMiwxLTUsMXMtNS0xLTUtMVM2LDMzLDYsNDRoMzJDMzgsMzMsMjcsMzEsMjcsMzF6Ii8+JiN4YTsgICAgPC9nPiYjeGE7PC9zdmc+" parent="1" vertex="1">
          <mxGeometry x="754" y="551" width="48" height="48" as="geometry" />
        </mxCell>
        <mxCell id="T79O4q9SvLmyfKx7ZLjV-18" value="试题纠正" style="edgeStyle=orthogonalEdgeStyle;rounded=0;orthogonalLoop=1;jettySize=auto;html=1;entryX=0.5;entryY=0;entryDx=0;entryDy=0;" parent="1" target="T79O4q9SvLmyfKx7ZLjV-3" edge="1">
          <mxGeometry relative="1" as="geometry">
            <Array as="points">
              <mxPoint x="780" y="70" />
              <mxPoint x="420" y="70" />
            </Array>
            <mxPoint x="780" y="104" as="sourcePoint" />
            <mxPoint x="450" y="281" as="targetPoint" />
          </mxGeometry>
        </mxCell>
        <mxCell id="T79O4q9SvLmyfKx7ZLjV-14" value="" style="shape=image;verticalLabelPosition=bottom;verticalAlign=top;imageAspect=0;aspect=fixed;image=data:image/svg+xml,PHN2ZyB4bWxucz0iaHR0cDovL3d3dy53My5vcmcvMjAwMC9zdmciIHZlcnNpb249IjEiIHZpZXdCb3g9IjAgMCA0OCA0OCIgZW5hYmxlLWJhY2tncm91bmQ9Im5ldyAwIDAgNDggNDgiPiYjeGE7ICAgIDxwYXRoIGZpbGw9IiM0MEM0RkYiIGQ9Ik00Mi45LDYuM0M0My42LDcuNCw0NCw4LjYsNDQsMTBjMCwzLjktMy4xLDctNyw3Yy0wLjcsMC0xLjMtMC4xLTEuOS0wLjNjMS4yLDIsMy40LDMuMyw1LjksMy4zIGMzLjksMCw3LTMuMSw3LTdDNDgsOS44LDQ1LjksNy4xLDQyLjksNi4zeiIvPiYjeGE7ICAgIDxnIGZpbGw9IiNCMzlEREIiPiYjeGE7ICAgICAgICA8Y2lyY2xlIGN4PSIzMSIgY3k9IjE5IiByPSIyIi8+JiN4YTsgICAgICAgIDxjaXJjbGUgY3g9IjEzIiBjeT0iMTkiIHI9IjIiLz4mI3hhOyAgICAgICAgPHBvbHlnb24gcG9pbnRzPSIyMiwzNyAxNywzMSAxNywyNSAyNywyNSAyNywzMSIvPiYjeGE7ICAgIDwvZz4mI3hhOyAgICA8cGF0aCBmaWxsPSIjRDFDNEU5IiBkPSJNMzEsMTNjMC03LjYtMTgtNS0xOCwwYzAsMS4xLDAsNS45LDAsN2MwLDUsNCw5LDksOXM5LTQsOS05QzMxLDE4LjksMzEsMTQuMSwzMSwxM3oiLz4mI3hhOyAgICA8ZyBmaWxsPSIjNjczQUI3Ij4mI3hhOyAgICAgICAgPGNpcmNsZSBjeD0iMjYiIGN5PSIxOSIgcj0iMSIvPiYjeGE7ICAgICAgICA8Y2lyY2xlIGN4PSIxOCIgY3k9IjE5IiByPSIxIi8+JiN4YTsgICAgICAgIDxwYXRoIGQ9Ik0yMiw0Yy02LjEsMC0xMCw0LjktMTAsMTFjMCwwLjgsMCwyLjMsMCwyLjNsMiwxLjd2LTVsMTItNGw0LDR2NWwyLTEuN2MwLDAsMC0xLjUsMC0yLjNjMC00LTEtOC02LTlsLTEtMiBIMjJ6Ii8+JiN4YTsgICAgICAgIDxwYXRoIGQ9Ik0yNywzMUwyNywzMWMwLDAtMiwxLTUsMXMtNS0xLTUtMVM2LDMzLDYsNDRoMzJDMzgsMzMsMjcsMzEsMjcsMzF6Ii8+JiN4YTsgICAgPC9nPiYjeGE7PC9zdmc+" parent="1" vertex="1">
          <mxGeometry x="802" y="551" width="48" height="48" as="geometry" />
        </mxCell>
        <mxCell id="T79O4q9SvLmyfKx7ZLjV-15" value="学生" style="shape=image;verticalLabelPosition=bottom;verticalAlign=top;imageAspect=0;aspect=fixed;image=data:image/svg+xml,PHN2ZyB4bWxucz0iaHR0cDovL3d3dy53My5vcmcvMjAwMC9zdmciIHZlcnNpb249IjEiIHZpZXdCb3g9IjAgMCA0OCA0OCIgZW5hYmxlLWJhY2tncm91bmQ9Im5ldyAwIDAgNDggNDgiPiYjeGE7ICAgIDxwYXRoIGZpbGw9IiM0MEM0RkYiIGQ9Ik00Mi45LDYuM0M0My42LDcuNCw0NCw4LjYsNDQsMTBjMCwzLjktMy4xLDctNyw3Yy0wLjcsMC0xLjMtMC4xLTEuOS0wLjNjMS4yLDIsMy40LDMuMyw1LjksMy4zIGMzLjksMCw3LTMuMSw3LTdDNDgsOS44LDQ1LjksNy4xLDQyLjksNi4zeiIvPiYjeGE7ICAgIDxnIGZpbGw9IiNCMzlEREIiPiYjeGE7ICAgICAgICA8Y2lyY2xlIGN4PSIzMSIgY3k9IjE5IiByPSIyIi8+JiN4YTsgICAgICAgIDxjaXJjbGUgY3g9IjEzIiBjeT0iMTkiIHI9IjIiLz4mI3hhOyAgICAgICAgPHBvbHlnb24gcG9pbnRzPSIyMiwzNyAxNywzMSAxNywyNSAyNywyNSAyNywzMSIvPiYjeGE7ICAgIDwvZz4mI3hhOyAgICA8cGF0aCBmaWxsPSIjRDFDNEU5IiBkPSJNMzEsMTNjMC03LjYtMTgtNS0xOCwwYzAsMS4xLDAsNS45LDAsN2MwLDUsNCw5LDksOXM5LTQsOS05QzMxLDE4LjksMzEsMTQuMSwzMSwxM3oiLz4mI3hhOyAgICA8ZyBmaWxsPSIjNjczQUI3Ij4mI3hhOyAgICAgICAgPGNpcmNsZSBjeD0iMjYiIGN5PSIxOSIgcj0iMSIvPiYjeGE7ICAgICAgICA8Y2lyY2xlIGN4PSIxOCIgY3k9IjE5IiByPSIxIi8+JiN4YTsgICAgICAgIDxwYXRoIGQ9Ik0yMiw0Yy02LjEsMC0xMCw0LjktMTAsMTFjMCwwLjgsMCwyLjMsMCwyLjNsMiwxLjd2LTVsMTItNGw0LDR2NWwyLTEuN2MwLDAsMC0xLjUsMC0yLjNjMC00LTEtOC02LTlsLTEtMiBIMjJ6Ii8+JiN4YTsgICAgICAgIDxwYXRoIGQ9Ik0yNywzMUwyNywzMWMwLDAtMiwxLTUsMXMtNS0xLTUtMVM2LDMzLDYsNDRoMzJDMzgsMzMsMjcsMzEsMjcsMzF6Ii8+JiN4YTsgICAgPC9nPiYjeGE7PC9zdmc+" parent="1" vertex="1">
          <mxGeometry x="782" y="581" width="48" height="48" as="geometry" />
        </mxCell>
        <mxCell id="T79O4q9SvLmyfKx7ZLjV-17" style="edgeStyle=none;rounded=0;orthogonalLoop=1;jettySize=auto;html=1;sourcePerimeterSpacing=5;endArrow=none;endFill=0;targetPerimeterSpacing=5;entryX=0.5;entryY=1;entryDx=0;entryDy=0;" parent="1" target="T79O4q9SvLmyfKx7ZLjV-11" edge="1">
          <mxGeometry relative="1" as="geometry">
            <mxPoint x="822" y="551" as="sourcePoint" />
            <mxPoint x="800" y="278" as="targetPoint" />
          </mxGeometry>
        </mxCell>
        <mxCell id="T79O4q9SvLmyfKx7ZLjV-19" value="答卷库" style="shape=image;verticalLabelPosition=bottom;verticalAlign=top;imageAspect=0;aspect=fixed;image=data:image/svg+xml,PHN2ZyB4bWxucz0iaHR0cDovL3d3dy53My5vcmcvMjAwMC9zdmciIHZlcnNpb249IjEiIHZpZXdCb3g9IjAgMCA0OCA0OCIgZW5hYmxlLWJhY2tncm91bmQ9Im5ldyAwIDAgNDggNDgiPiYjeGE7ICAgIDxwYXRoIGZpbGw9IiM0MkE1RjUiIGQ9Ik0zOSw0NUg5YzAsMC0zLTAuMS0zLThoMzZDNDIsNDQuOSwzOSw0NSwzOSw0NXoiLz4mI3hhOyAgICA8cmVjdCB4PSI4IiB5PSIzIiBmaWxsPSIjOTBDQUY5IiB3aWR0aD0iMzIiIGhlaWdodD0iMzQiLz4mI3hhOyAgICA8ZyBmaWxsPSIjMTk3NkQyIj4mI3hhOyAgICAgICAgPHJlY3QgeD0iMTgiIHk9IjE1IiB3aWR0aD0iMTYiIGhlaWdodD0iMiIvPiYjeGE7ICAgICAgICA8cmVjdCB4PSIxOCIgeT0iMTkiIHdpZHRoPSIxNiIgaGVpZ2h0PSIyIi8+JiN4YTsgICAgICAgIDxyZWN0IHg9IjE4IiB5PSIyMyIgd2lkdGg9IjE2IiBoZWlnaHQ9IjIiLz4mI3hhOyAgICAgICAgPHJlY3QgeD0iMTgiIHk9IjI3IiB3aWR0aD0iMTYiIGhlaWdodD0iMiIvPiYjeGE7ICAgICAgICA8cmVjdCB4PSIxOCIgeT0iMzEiIHdpZHRoPSIxNiIgaGVpZ2h0PSIyIi8+JiN4YTsgICAgPC9nPiYjeGE7ICAgIDxnIGZpbGw9IiMxOTc2RDIiPiYjeGE7ICAgICAgICA8cmVjdCB4PSIxNCIgeT0iMTUiIHdpZHRoPSIyIiBoZWlnaHQ9IjIiLz4mI3hhOyAgICAgICAgPHJlY3QgeD0iMTQiIHk9IjE5IiB3aWR0aD0iMiIgaGVpZ2h0PSIyIi8+JiN4YTsgICAgICAgIDxyZWN0IHg9IjE0IiB5PSIyMyIgd2lkdGg9IjIiIGhlaWdodD0iMiIvPiYjeGE7ICAgICAgICA8cmVjdCB4PSIxNCIgeT0iMjciIHdpZHRoPSIyIiBoZWlnaHQ9IjIiLz4mI3hhOyAgICAgICAgPHJlY3QgeD0iMTQiIHk9IjMxIiB3aWR0aD0iMiIgaGVpZ2h0PSIyIi8+JiN4YTsgICAgPC9nPiYjeGE7PC9zdmc+" parent="1" vertex="1">
          <mxGeometry x="480" y="551" width="48" height="48" as="geometry" />
        </mxCell>
        <mxCell id="T79O4q9SvLmyfKx7ZLjV-20" value="得分、答案、暂存" style="edgeStyle=none;rounded=0;orthogonalLoop=1;jettySize=auto;html=1;sourcePerimeterSpacing=5;endArrow=none;endFill=0;targetPerimeterSpacing=5;entryX=1;entryY=0.5;entryDx=0;entryDy=0;exitX=0;exitY=0.5;exitDx=0;exitDy=0;" parent="1" source="T79O4q9SvLmyfKx7ZLjV-13" target="T79O4q9SvLmyfKx7ZLjV-19" edge="1">
          <mxGeometry relative="1" as="geometry">
            <mxPoint x="618" y="497" as="sourcePoint" />
            <mxPoint x="688" y="379" as="targetPoint" />
            <Array as="points" />
          </mxGeometry>
        </mxCell>
        <mxCell id="3yVXPitk0aDkyJWKLhSL-1" value="答卷分析" style="shape=image;verticalLabelPosition=bottom;verticalAlign=top;imageAspect=0;aspect=fixed;image=data:image/svg+xml,PHN2ZyB4bWxucz0iaHR0cDovL3d3dy53My5vcmcvMjAwMC9zdmciIHZlcnNpb249IjEiIHZpZXdCb3g9IjAgMCA0OCA0OCIgZW5hYmxlLWJhY2tncm91bmQ9Im5ldyAwIDAgNDggNDgiPiYjeGE7ICAgIDxnIGZpbGw9IiNGNDQzMzYiPiYjeGE7ICAgICAgICA8cmVjdCB4PSI0MCIgeT0iMzQiIHdpZHRoPSI0IiBoZWlnaHQ9IjEwIi8+JiN4YTsgICAgICAgIDxyZWN0IHg9IjM0IiB5PSIyOSIgd2lkdGg9IjQiIGhlaWdodD0iMTUiLz4mI3hhOyAgICAgICAgPHJlY3QgeD0iMjgiIHk9IjMzIiB3aWR0aD0iNCIgaGVpZ2h0PSIxMSIvPiYjeGE7ICAgICAgICA8cmVjdCB4PSIyMiIgeT0iMjUiIHdpZHRoPSI0IiBoZWlnaHQ9IjE5Ii8+JiN4YTsgICAgICAgIDxyZWN0IHg9IjE2IiB5PSIyOCIgd2lkdGg9IjQiIGhlaWdodD0iMTYiLz4mI3hhOyAgICAgICAgPHJlY3QgeD0iMTAiIHk9IjI0IiB3aWR0aD0iNCIgaGVpZ2h0PSIyMCIvPiYjeGE7ICAgICAgICA8cmVjdCB4PSI0IiB5PSIxOSIgd2lkdGg9IjQiIGhlaWdodD0iMjUiLz4mI3hhOyAgICA8L2c+JiN4YTsgICAgPGcgZmlsbD0iI0QzMkYyRiI+JiN4YTsgICAgICAgIDxwb2x5Z29uIHBvaW50cz0iMzQsMTMuMiAzMCwxNy4yIDIwLDcuMiAxNSwxMi4yIDcuNCw0LjYgNC42LDcuNCAxNSwxNy44IDIwLDEyLjggMzAsMjIuOCAzNCwxOC44IDQwLjEsMjQuOSA0Mi45LDIyLjEiLz4mI3hhOyAgICAgICAgPHBvbHlnb24gcG9pbnRzPSI0NCwyNiAzNSwyNiA0NCwxNyIvPiYjeGE7ICAgIDwvZz4mI3hhOzwvc3ZnPg==" vertex="1" parent="1">
          <mxGeometry x="200" y="551" width="48" height="48" as="geometry" />
        </mxCell>
        <mxCell id="3yVXPitk0aDkyJWKLhSL-2" style="edgeStyle=none;rounded=0;orthogonalLoop=1;jettySize=auto;html=1;sourcePerimeterSpacing=5;endArrow=none;endFill=0;targetPerimeterSpacing=5;exitX=1;exitY=0.5;exitDx=0;exitDy=0;entryX=0;entryY=0.5;entryDx=0;entryDy=0;" edge="1" parent="1" target="T79O4q9SvLmyfKx7ZLjV-19">
          <mxGeometry relative="1" as="geometry">
            <mxPoint x="248" y="581" as="sourcePoint" />
            <mxPoint x="575" y="549.5900277008311" as="targetPoint" />
            <Array as="points" />
          </mxGeometry>
        </mxCell>
        <mxCell id="3yVXPitk0aDkyJWKLhSL-4" value="试题录入" style="text;html=1;align=center;verticalAlign=middle;resizable=0;points=[];autosize=1;" vertex="1" parent="1">
          <mxGeometry x="300" y="300" width="60" height="20" as="geometry" />
        </mxCell>
      </root>
    </mxGraphModel>
  </diagram>
</mxfile>
